<svg version="1.1" id="Layer_1" xmlns="http://www.w3.org/2000/svg" xmlns:xlink="http://www.w3.org/1999/xlink" x="0px" y="0px"
	 width="100%" viewBox="0 0 4096 4096" enable-background="new 0 0 4096 4096" xml:space="preserve">
<path fill="#000000" opacity="1.000000" stroke="none" 
	d="
M2166.000000,4098.000000 
	C1444.000000,4098.000000 723.000000,4098.000000 2.000000,4098.000000 
	C2.000000,2732.666748 2.000000,1367.333374 2.000000,2.000000 
	C1367.333374,2.000000 2732.666748,2.000000 4098.000000,2.000000 
	C4098.000000,1367.333374 4098.000000,2732.666748 4098.000000,4098.000000 
	C3454.333252,4098.000000 2810.666748,4098.000000 2166.000000,4098.000000 
M355.585052,2837.811279 
	C362.685883,2827.354004 369.823883,2816.921875 376.881409,2806.435547 
	C426.304474,2733.000244 475.722870,2659.561768 525.119568,2586.108398 
	C578.416321,2506.855713 631.718689,2427.606201 684.957397,2348.314453 
	C713.149292,2306.326416 741.147522,2264.208496 769.349365,2222.227539 
	C798.295593,2179.137939 827.434875,2136.177979 856.397400,2093.099365 
	C895.576843,2034.824707 934.665283,1976.489014 973.800232,1918.184448 
	C979.887695,1909.115112 986.014465,1900.072144 993.229736,1889.376587 
	C908.144836,1883.910889 824.652771,1878.547607 740.044678,1873.112549 
	C799.392090,1665.148804 859.019714,1458.057861 917.564453,1250.661133 
	C905.594177,1264.864990 285.136292,2110.605225 282.636261,2119.760986 
	C306.103546,2121.737549 329.457092,2123.756104 352.820587,2125.651611 
	C365.715790,2126.697998 378.639557,2127.398926 391.529785,2128.498047 
	C418.585022,2130.804443 445.619751,2133.352783 472.676758,2135.637207 
	C485.897827,2136.753418 499.162170,2137.354004 512.385010,2138.451904 
	C531.852905,2140.067871 551.297485,2141.962891 570.759033,2143.658447 
	C587.822144,2145.145020 604.894958,2146.520264 622.499817,2147.989258 
	C621.636169,2150.753906 621.164734,2152.666260 620.452576,2154.484375 
	C599.620544,2207.664307 578.760193,2260.833496 557.913452,2314.007812 
	C531.854431,2380.477051 505.839355,2446.963623 479.740509,2513.417236 
	C448.057373,2594.089600 416.255096,2674.715332 384.613983,2755.404053 
	C373.950439,2782.597168 363.621552,2809.921875 352.241364,2838.051514 
	C352.241364,2839.171143 352.241364,2840.290527 352.241364,2841.410156 
	C352.552002,2841.458008 352.862671,2841.505859 353.173309,2841.553955 
	C353.547699,2840.459961 353.922058,2839.366211 355.585052,2837.811279 
M1422.872314,2361.841064 
	C1443.895508,2351.706299 1464.056763,2340.271484 1481.864868,2324.910889 
	C1486.203369,2321.168457 1488.506226,2317.084473 1489.838989,2311.754639 
	C1502.317627,2261.848389 1514.963257,2211.984131 1527.490356,2162.089844 
	C1531.585327,2145.780029 1535.474731,2129.418213 1539.467651,2113.041016 
	C1470.873535,2113.041016 1403.054932,2113.041016 1335.139648,2113.041016 
	C1328.463013,2139.341797 1321.951538,2164.992676 1315.093506,2192.008057 
	C1348.057007,2192.008057 1379.771973,2192.008057 1412.052002,2192.008057 
	C1406.247070,2215.420166 1400.819336,2237.642334 1395.216064,2259.820312 
	C1389.007812,2284.392334 1388.795532,2284.545410 1365.130371,2294.554199 
	C1363.605957,2295.199219 1362.036499,2295.745361 1360.466675,2296.274414 
	C1332.600220,2305.671143 1304.035889,2308.400146 1275.079834,2303.575439 
	C1243.406128,2298.297852 1222.180786,2280.813232 1213.439331,2248.945801 
	C1207.241211,2226.350830 1207.264160,2203.578125 1211.477295,2181.065430 
	C1216.839722,2152.410645 1223.182373,2123.860107 1230.821045,2095.731445 
	C1239.905884,2062.276367 1252.630859,2030.093262 1274.047974,2002.251587 
	C1300.059326,1968.437134 1332.833740,1947.056152 1377.222534,1947.499878 
	C1389.539307,1947.623047 1401.676147,1948.045654 1413.570190,1951.775146 
	C1433.485352,1958.019409 1447.097534,1970.512085 1452.138306,1991.007202 
	C1454.175171,1999.289062 1454.770020,2007.961426 1455.568359,2016.498535 
	C1456.048706,2021.635010 1455.656738,2026.853027 1455.656738,2031.617188 
	C1491.171021,2031.617188 1525.331177,2031.617188 1559.543823,2031.617188 
	C1562.801392,2010.472168 1563.327026,1989.946777 1560.116333,1969.525146 
	C1553.263184,1925.936646 1530.513916,1894.158447 1489.519775,1876.244507 
	C1465.102417,1865.574463 1439.181274,1861.883667 1412.972290,1860.495728 
	C1387.041016,1859.122437 1361.234741,1861.093262 1335.834106,1867.179565 
	C1281.828491,1880.119507 1236.665771,1907.560547 1199.548950,1948.817383 
	C1174.139282,1977.061279 1154.736816,2008.898926 1139.644287,2043.614624 
	C1127.675903,2071.143799 1119.776855,2099.926270 1112.523682,2128.916992 
	C1102.340210,2169.619873 1094.820557,2210.609131 1099.614990,2252.915527 
	C1102.223389,2275.932617 1108.100220,2297.900635 1119.595703,2318.113525 
	C1140.848511,2355.483398 1174.078613,2376.464844 1214.982544,2386.006592 
	C1245.939331,2393.228271 1277.360596,2393.524170 1308.981201,2390.457031 
	C1347.929321,2386.679199 1385.503906,2377.929932 1422.872314,2361.841064 
M2262.258545,2117.226074 
	C2240.004150,2206.354492 2217.750000,2295.482666 2195.391357,2385.028809 
	C2311.762939,2385.028809 2427.178955,2385.028809 2542.886230,2385.028809 
	C2550.109863,2356.021729 2557.197998,2327.557617 2564.527832,2298.123047 
	C2483.996826,2298.123047 2404.813965,2298.123047 2324.854492,2298.123047 
	C2336.313721,2252.307129 2347.562012,2207.335449 2358.977051,2161.696289 
	C2427.124268,2161.696289 2495.002686,2161.696289 2563.271240,2161.696289 
	C2570.365967,2133.139893 2577.301758,2105.223877 2584.481934,2076.322754 
	C2516.100586,2076.322754 2448.614502,2076.322754 2380.072754,2076.322754 
	C2390.354004,2035.193115 2400.379395,1995.086792 2410.578369,1954.285522 
	C2490.621094,1954.285522 2570.137695,1954.285522 2649.898438,1954.285522 
	C2657.107910,1925.217285 2664.128174,1896.912476 2671.265137,1868.136719 
	C2555.282715,1868.136719 2440.106689,1868.136719 2324.633789,1868.136719 
	C2320.338867,1885.207764 2316.127197,1901.903442 2311.938477,1918.604980 
	C2295.469971,1984.267944 2279.009277,2049.932861 2262.258545,2117.226074 
M1762.368286,2389.626221 
	C1789.402344,2385.020264 1815.160400,2376.698975 1839.371094,2363.653564 
	C1859.419189,2352.851074 1877.195312,2339.139160 1893.674072,2322.812500 
	C1881.334351,2303.689453 1869.162354,2284.826416 1856.735596,2265.568604 
	C1853.583862,2268.023926 1851.125854,2269.673340 1848.976685,2271.656982 
	C1836.623779,2283.058838 1822.592529,2291.851074 1807.055542,2298.107910 
	C1782.502319,2307.996338 1757.069214,2311.574707 1730.981689,2306.144287 
	C1691.876587,2298.003662 1674.747070,2261.369873 1682.049072,2226.052002 
	C1763.085571,2226.052002 1844.277344,2226.052002 1925.619141,2226.052002 
	C1929.690430,2209.624268 1933.931519,2193.927246 1937.436768,2178.067627 
	C1944.334351,2146.859131 1948.954712,2115.426025 1942.160156,2083.548828 
	C1933.597778,2043.378784 1910.602417,2015.656616 1871.439209,2001.657593 
	C1850.654297,1994.227783 1829.253662,1993.536377 1807.589844,1993.610107 
	C1767.190308,1993.747681 1730.441406,2005.987671 1696.804565,2027.554688 
	C1652.039673,2056.256836 1620.936646,2096.644775 1600.225708,2145.132568 
	C1587.135742,2175.778076 1578.860840,2207.760254 1575.374146,2241.076660 
	C1573.084839,2262.952637 1574.692383,2284.249268 1581.833862,2304.808105 
	C1598.023071,2351.413330 1632.211914,2377.535889 1679.457031,2387.738525 
	C1706.324097,2393.540527 1733.442993,2393.681641 1762.368286,2389.626221 
M3081.676758,2231.511475 
	C3082.804932,2229.820557 3083.601318,2227.203125 3085.137939,2226.652832 
	C3087.510742,2225.803467 3090.390137,2226.338379 3093.054443,2226.338135 
	C3167.372803,2226.332764 3241.691406,2226.333740 3316.009766,2226.333740 
	C3319.589600,2226.333740 3323.169434,2226.333984 3327.097656,2226.333984 
	C3331.681641,2206.680176 3336.208496,2188.016113 3340.365479,2169.269775 
	C3346.301514,2142.501709 3348.947510,2115.435303 3344.162354,2088.246582 
	C3336.719971,2045.960449 3314.020752,2015.763306 3272.432861,2001.773926 
	C3237.079590,1989.881958 3200.952881,1990.715942 3165.248291,1998.959961 
	C3116.012451,2010.328369 3075.853516,2037.032837 3043.561523,2075.758789 
	C3013.592773,2111.698975 2994.741943,2152.984375 2983.952637,2198.289062 
	C2977.137695,2226.905518 2972.392822,2255.662842 2977.937500,2284.997314 
	C2986.955078,2332.704102 3014.253906,2365.461182 3060.098145,2381.805908 
	C3091.984375,2393.174072 3125.025635,2394.530273 3158.371826,2390.166260 
	C3196.946533,2385.117676 3232.340576,2371.630859 3264.049561,2349.035645 
	C3275.025635,2341.214355 3285.936279,2333.107910 3294.503174,2322.170410 
	C3282.140137,2303.041992 3270.081299,2284.383789 3257.776611,2265.345459 
	C3256.130371,2266.718018 3255.129395,2267.479492 3254.209961,2268.329590 
	C3224.262451,2296.011719 3189.179199,2310.226074 3148.142090,2308.278076 
	C3120.116699,2306.947754 3098.299316,2295.520752 3086.653564,2268.631104 
	C3081.777588,2257.372803 3081.207031,2245.448486 3081.676758,2231.511475 
M3637.256348,1993.664673 
	C3595.810547,1996.126343 3561.000000,2014.041138 3528.535400,2042.625000 
	C3531.140625,2026.914185 3533.277832,2014.025024 3535.491211,2000.677979 
	C3502.737549,2000.677979 3470.806152,2000.677979 3437.976562,2000.677979 
	C3406.019775,2128.455322 3374.014648,2256.426270 3341.822998,2385.143555 
	C3377.019531,2385.143555 3411.148438,2385.143555 3445.333008,2385.143555 
	C3446.280762,2381.803223 3447.171875,2378.959229 3447.894287,2376.072510 
	C3469.161865,2291.091553 3490.397705,2206.102783 3511.724609,2121.136475 
	C3512.510986,2118.002930 3513.484863,2114.505127 3515.508057,2112.156250 
	C3539.299805,2084.533203 3569.456787,2072.748535 3605.452148,2078.661865 
	C3624.475342,2081.787109 3636.641357,2090.788818 3635.803467,2115.848633 
	C3635.562500,2123.059326 3634.252930,2130.350098 3632.514648,2137.377197 
	C3614.105713,2211.790039 3595.504395,2286.155518 3576.976807,2360.539062 
	C3574.991211,2368.510254 3573.136963,2376.514160 3571.053467,2385.205566 
	C3606.093506,2385.205566 3639.923340,2385.205566 3674.055664,2385.205566 
	C3674.762207,2383.174072 3675.550537,2381.369873 3676.022461,2379.486084 
	C3695.288086,2302.554199 3714.491943,2225.607178 3733.783936,2148.681885 
	C3739.688721,2125.137207 3744.774414,2101.479248 3744.311035,2077.028564 
	C3744.000000,2060.625977 3741.828857,2044.488525 3733.430420,2030.032837 
	C3722.160400,2010.634888 3704.373047,2000.764893 3682.912354,1996.132935 
	C3668.398926,1993.000610 3653.798096,1993.886230 3637.256348,1993.664673 
M2795.537598,2362.606445 
	C2806.580566,2343.662354 2817.567871,2324.685547 2828.676270,2305.780029 
	C2883.373535,2212.689453 2938.109619,2119.621582 2992.808838,2026.532104 
	C2997.614502,2018.353149 3002.252441,2010.075684 3007.555908,2000.818359 
	C2970.565918,2000.818359 2935.152100,2000.818359 2899.306641,2000.818359 
	C2854.948975,2085.159180 2810.678711,2169.333252 2766.071533,2254.148926 
	C2764.984375,2252.442139 2764.434570,2251.978027 2764.416992,2251.494873 
	C2763.696533,2231.580322 2762.942383,2211.666748 2762.365723,2191.747803 
	C2761.615479,2165.837402 2760.893799,2139.925293 2760.381348,2114.009521 
	C2759.973633,2093.373779 2760.004883,2072.729492 2759.637939,2052.092773 
	C2759.384277,2037.820312 2758.843750,2023.551636 2758.290283,2009.286865 
	C2758.178955,2006.415161 2757.431885,2003.568115 2756.984863,2000.754395 
	C2721.003418,2000.754395 2685.792725,2000.754395 2650.109131,2000.754395 
	C2650.109131,2002.423828 2650.017822,2003.671143 2650.122559,2004.901733 
	C2652.705322,2035.260254 2655.272949,2065.620117 2657.918945,2095.973145 
	C2660.593994,2126.658203 2663.406494,2157.331055 2666.050781,2188.018555 
	C2667.614990,2206.173340 2668.836182,2224.357666 2670.449951,2242.507324 
	C2672.736572,2268.224121 2675.364258,2293.910645 2677.617188,2319.630127 
	C2679.381348,2339.769043 2680.754395,2359.941650 2682.441162,2380.087646 
	C2682.594238,2381.916748 2683.770996,2383.660156 2684.426270,2385.326660 
	C2717.169922,2385.326660 2749.398438,2385.326660 2781.915527,2385.326660 
	C2786.214355,2378.059570 2790.437988,2370.919922 2795.537598,2362.606445 
M2029.489868,2120.140381 
	C2017.625488,2167.436768 2005.825195,2214.749268 1993.867432,2262.021973 
	C1988.489624,2283.282227 1983.088867,2304.493408 1984.308594,2326.727783 
	C1985.289795,2344.615234 1990.649292,2360.514893 2004.331055,2372.887695 
	C2015.628418,2383.104004 2029.405518,2387.515137 2043.988525,2390.065918 
	C2064.816895,2393.708496 2085.666016,2392.589844 2106.399658,2389.544434 
	C2116.787598,2388.018555 2126.989014,2385.221680 2136.895752,2383.081787 
	C2143.518311,2356.414795 2149.870850,2330.834717 2156.318604,2304.870850 
	C2154.147949,2304.653076 2153.202148,2304.442139 2152.266846,2304.481934 
	C2139.691895,2305.015137 2127.080322,2306.458252 2114.553711,2305.918457 
	C2099.301025,2305.261230 2092.669922,2296.792725 2093.755859,2281.630127 
	C2094.014160,2278.025146 2094.780273,2274.421143 2095.654053,2270.901367 
	C2109.478271,2215.202637 2123.351318,2159.516113 2137.234375,2103.832031 
	C2139.525635,2094.641357 2141.918457,2085.476318 2144.301270,2076.155518 
	C2166.641602,2076.155518 2187.922119,2076.155518 2209.828125,2076.155518 
	C2216.105713,2050.975098 2222.312744,2026.078003 2228.835693,1999.913330 
	C2206.244141,1999.913330 2185.145508,1999.913330 2163.218750,1999.913330 
	C2171.129639,1968.060547 2178.763672,1937.322388 2186.502441,1906.162109 
	C2151.251465,1906.162109 2117.062500,1906.162109 2082.868896,1906.162109 
	C2074.948730,1937.718262 2067.145020,1968.809692 2059.205322,2000.443481 
	C2040.324097,2000.443481 2022.109741,2000.443481 2003.274170,2000.443481 
	C1996.939453,2025.844116 1990.744995,2050.682617 1984.341553,2076.358398 
	C2003.426880,2076.358398 2021.340210,2076.358398 2040.164185,2076.358398 
	C2036.579590,2090.920898 2033.184082,2104.714844 2029.489868,2120.140381 
M3906.976562,2299.922607 
	C3900.456299,2291.777588 3901.230469,2282.513184 3903.479248,2273.359863 
	C3916.618652,2219.882812 3929.942627,2166.450928 3943.217773,2113.007080 
	C3946.232422,2100.871094 3949.300537,2088.748291 3952.477051,2076.089844 
	C3974.807373,2076.089844 3996.326904,2076.089844 4018.114258,2076.089844 
	C4024.425293,2050.732910 4030.568604,2026.049683 4037.001953,2000.201172 
	C4014.508789,2000.201172 3993.343018,2000.201172 3971.396973,2000.201172 
	C3979.311768,1968.354492 3986.968506,1937.545776 3994.759033,1906.198975 
	C3959.605469,1906.198975 3925.447266,1906.198975 3891.107666,1906.198975 
	C3883.186035,1937.737671 3875.378906,1968.819702 3867.434082,2000.451172 
	C3848.542236,2000.451172 3830.338867,2000.451172 3811.481934,2000.451172 
	C3805.177002,2025.855591 3799.014160,2050.686768 3792.570557,2076.649902 
	C3812.020264,2076.649902 3829.811523,2076.649902 3847.644531,2076.649902 
	C3847.644531,2078.437256 3847.846924,2079.477539 3847.615479,2080.410156 
	C3836.746094,2124.193848 3825.544434,2167.897949 3815.035156,2211.767822 
	C3807.318848,2243.979492 3796.818604,2275.581055 3792.972168,2308.663086 
	C3790.855225,2326.869873 3792.646973,2344.657471 3802.353760,2360.593750 
	C3813.832520,2379.437988 3832.595215,2387.258789 3853.219727,2390.021484 
	C3867.587891,2391.946533 3882.356689,2392.136475 3896.864746,2391.428711 
	C3913.324951,2390.625732 3929.685791,2387.914795 3945.383057,2382.702148 
	C3948.742920,2369.453369 3952.286621,2356.652344 3955.189209,2343.707764 
	C3958.097412,2330.738525 3962.697021,2318.069580 3964.051514,2305.502197 
	C3949.512695,2305.751709 3936.258789,2306.474854 3923.053955,2305.952637 
	C3918.048584,2305.754395 3913.156494,2302.686523 3906.976562,2299.922607 
z"/>
<path fill="#FEFEFE" opacity="1.000000" stroke="none" 
	d="
M353.139648,2837.186279 
	C363.621552,2809.921875 373.950439,2782.597168 384.613983,2755.404053 
	C416.255096,2674.715332 448.057373,2594.089600 479.740509,2513.417236 
	C505.839355,2446.963623 531.854431,2380.477051 557.913452,2314.007812 
	C578.760193,2260.833496 599.620544,2207.664307 620.452576,2154.484375 
	C621.164734,2152.666260 621.636169,2150.753906 622.499817,2147.989258 
	C604.894958,2146.520264 587.822144,2145.145020 570.759033,2143.658447 
	C551.297485,2141.962891 531.852905,2140.067871 512.385010,2138.451904 
	C499.162170,2137.354004 485.897827,2136.753418 472.676758,2135.637207 
	C445.619751,2133.352783 418.585022,2130.804443 391.529785,2128.498047 
	C378.639557,2127.398926 365.715790,2126.697998 352.820587,2125.651611 
	C329.457092,2123.756104 306.103546,2121.737549 282.636261,2119.760986 
	C285.136292,2110.605225 905.594177,1264.864990 917.564453,1250.661133 
	C859.019714,1458.057861 799.392090,1665.148804 740.044678,1873.112549 
	C824.652771,1878.547607 908.144836,1883.910889 993.229736,1889.376587 
	C986.014465,1900.072144 979.887695,1909.115112 973.800232,1918.184448 
	C934.665283,1976.489014 895.576843,2034.824707 856.397400,2093.099365 
	C827.434875,2136.177979 798.295593,2179.137939 769.349365,2222.227539 
	C741.147522,2264.208496 713.149292,2306.326416 684.957397,2348.314453 
	C631.718689,2427.606201 578.416321,2506.855713 525.119568,2586.108398 
	C475.722870,2659.561768 426.304474,2733.000244 376.881409,2806.435547 
	C369.823883,2816.921875 362.685883,2827.354004 354.651855,2837.770020 
	C353.718658,2837.728516 353.139648,2837.186279 353.139648,2837.186279 
z"/>
<path fill="#FDFDFD" opacity="1.000000" stroke="none" 
	d="
M1422.138794,2362.047852 
	C1385.503906,2377.929932 1347.929321,2386.679199 1308.981201,2390.457031 
	C1277.360596,2393.524170 1245.939331,2393.228271 1214.982544,2386.006592 
	C1174.078613,2376.464844 1140.848511,2355.483398 1119.595703,2318.113525 
	C1108.100220,2297.900635 1102.223389,2275.932617 1099.614990,2252.915527 
	C1094.820557,2210.609131 1102.340210,2169.619873 1112.523682,2128.916992 
	C1119.776855,2099.926270 1127.675903,2071.143799 1139.644287,2043.614624 
	C1154.736816,2008.898926 1174.139282,1977.061279 1199.548950,1948.817383 
	C1236.665771,1907.560547 1281.828491,1880.119507 1335.834106,1867.179565 
	C1361.234741,1861.093262 1387.041016,1859.122437 1412.972290,1860.495728 
	C1439.181274,1861.883667 1465.102417,1865.574463 1489.519775,1876.244507 
	C1530.513916,1894.158447 1553.263184,1925.936646 1560.116333,1969.525146 
	C1563.327026,1989.946777 1562.801392,2010.472168 1559.543823,2031.617188 
	C1525.331177,2031.617188 1491.171021,2031.617188 1455.656738,2031.617188 
	C1455.656738,2026.853027 1456.048706,2021.635010 1455.568359,2016.498535 
	C1454.770020,2007.961426 1454.175171,1999.289062 1452.138306,1991.007202 
	C1447.097534,1970.512085 1433.485352,1958.019409 1413.570190,1951.775146 
	C1401.676147,1948.045654 1389.539307,1947.623047 1377.222534,1947.499878 
	C1332.833740,1947.056152 1300.059326,1968.437134 1274.047974,2002.251587 
	C1252.630859,2030.093262 1239.905884,2062.276367 1230.821045,2095.731445 
	C1223.182373,2123.860107 1216.839722,2152.410645 1211.477295,2181.065430 
	C1207.264160,2203.578125 1207.241211,2226.350830 1213.439331,2248.945801 
	C1222.180786,2280.813232 1243.406128,2298.297852 1275.079834,2303.575439 
	C1304.035889,2308.400146 1332.600220,2305.671143 1360.466675,2296.274414 
	C1362.036499,2295.745361 1363.605957,2295.199219 1365.130371,2294.554199 
	C1388.795532,2284.545410 1389.007812,2284.392334 1395.216064,2259.820312 
	C1400.819336,2237.642334 1406.247070,2215.420166 1412.052002,2192.008057 
	C1379.771973,2192.008057 1348.057007,2192.008057 1315.093506,2192.008057 
	C1321.951538,2164.992676 1328.463013,2139.341797 1335.139648,2113.041016 
	C1403.054932,2113.041016 1470.873535,2113.041016 1539.467651,2113.041016 
	C1535.474731,2129.418213 1531.585327,2145.780029 1527.490356,2162.089844 
	C1514.963257,2211.984131 1502.317627,2261.848389 1489.838989,2311.754639 
	C1488.506226,2317.084473 1486.203369,2321.168457 1481.864868,2324.910889 
	C1464.056763,2340.271484 1443.895508,2351.706299 1422.138794,2362.047852 
z"/>
<path fill="#FDFDFD" opacity="1.000000" stroke="none" 
	d="
M2262.401855,2116.411621 
	C2279.009277,2049.932861 2295.469971,1984.267944 2311.938477,1918.604980 
	C2316.127197,1901.903442 2320.338867,1885.207764 2324.633789,1868.136719 
	C2440.106689,1868.136719 2555.282715,1868.136719 2671.265137,1868.136719 
	C2664.128174,1896.912476 2657.107910,1925.217285 2649.898438,1954.285522 
	C2570.137695,1954.285522 2490.621094,1954.285522 2410.578369,1954.285522 
	C2400.379395,1995.086792 2390.354004,2035.193115 2380.072754,2076.322754 
	C2448.614502,2076.322754 2516.100586,2076.322754 2584.481934,2076.322754 
	C2577.301758,2105.223877 2570.365967,2133.139893 2563.271240,2161.696289 
	C2495.002686,2161.696289 2427.124268,2161.696289 2358.977051,2161.696289 
	C2347.562012,2207.335449 2336.313721,2252.307129 2324.854492,2298.123047 
	C2404.813965,2298.123047 2483.996826,2298.123047 2564.527832,2298.123047 
	C2557.197998,2327.557617 2550.109863,2356.021729 2542.886230,2385.028809 
	C2427.178955,2385.028809 2311.762939,2385.028809 2195.391357,2385.028809 
	C2217.750000,2295.482666 2240.004150,2206.354492 2262.401855,2116.411621 
z"/>
<path fill="#FEFEFE" opacity="1.000000" stroke="none" 
	d="
M1761.485596,2389.649902 
	C1733.442993,2393.681641 1706.324097,2393.540527 1679.457031,2387.738525 
	C1632.211914,2377.535889 1598.023071,2351.413330 1581.833862,2304.808105 
	C1574.692383,2284.249268 1573.084839,2262.952637 1575.374146,2241.076660 
	C1578.860840,2207.760254 1587.135742,2175.778076 1600.225708,2145.132568 
	C1620.936646,2096.644775 1652.039673,2056.256836 1696.804565,2027.554688 
	C1730.441406,2005.987671 1767.190308,1993.747681 1807.589844,1993.610107 
	C1829.253662,1993.536377 1850.654297,1994.227783 1871.439209,2001.657593 
	C1910.602417,2015.656616 1933.597778,2043.378784 1942.160156,2083.548828 
	C1948.954712,2115.426025 1944.334351,2146.859131 1937.436768,2178.067627 
	C1933.931519,2193.927246 1929.690430,2209.624268 1925.619141,2226.052002 
	C1844.277344,2226.052002 1763.085571,2226.052002 1682.049072,2226.052002 
	C1674.747070,2261.369873 1691.876587,2298.003662 1730.981689,2306.144287 
	C1757.069214,2311.574707 1782.502319,2307.996338 1807.055542,2298.107910 
	C1822.592529,2291.851074 1836.623779,2283.058838 1848.976685,2271.656982 
	C1851.125854,2269.673340 1853.583862,2268.023926 1856.735596,2265.568604 
	C1869.162354,2284.826416 1881.334351,2303.689453 1893.674072,2322.812500 
	C1877.195312,2339.139160 1859.419189,2352.851074 1839.371094,2363.653564 
	C1815.160400,2376.698975 1789.402344,2385.020264 1761.485596,2389.649902 
M1790.999878,2155.685303 
	C1807.599121,2155.685303 1824.198364,2155.685303 1841.878540,2155.685303 
	C1843.428955,2145.625000 1846.019653,2136.216064 1846.111572,2126.782715 
	C1846.353638,2101.925781 1836.289307,2084.457031 1810.590942,2078.826416 
	C1798.586914,2076.196289 1786.114746,2076.407471 1774.024780,2079.206543 
	C1757.049438,2083.136719 1742.821533,2092.045410 1730.848267,2104.610107 
	C1716.949463,2119.195557 1707.136719,2136.187744 1700.116699,2155.685303 
	C1730.403809,2155.685303 1759.701782,2155.685303 1790.999878,2155.685303 
z"/>
<path fill="#FEFEFE" opacity="1.000000" stroke="none" 
	d="
M3081.674316,2232.458496 
	C3081.207031,2245.448486 3081.777588,2257.372803 3086.653564,2268.631104 
	C3098.299316,2295.520752 3120.116699,2306.947754 3148.142090,2308.278076 
	C3189.179199,2310.226074 3224.262451,2296.011719 3254.209961,2268.329590 
	C3255.129395,2267.479492 3256.130371,2266.718018 3257.776611,2265.345459 
	C3270.081299,2284.383789 3282.140137,2303.041992 3294.503174,2322.170410 
	C3285.936279,2333.107910 3275.025635,2341.214355 3264.049561,2349.035645 
	C3232.340576,2371.630859 3196.946533,2385.117676 3158.371826,2390.166260 
	C3125.025635,2394.530273 3091.984375,2393.174072 3060.098145,2381.805908 
	C3014.253906,2365.461182 2986.955078,2332.704102 2977.937500,2284.997314 
	C2972.392822,2255.662842 2977.137695,2226.905518 2983.952637,2198.289062 
	C2994.741943,2152.984375 3013.592773,2111.698975 3043.561523,2075.758789 
	C3075.853516,2037.032837 3116.012451,2010.328369 3165.248291,1998.959961 
	C3200.952881,1990.715942 3237.079590,1989.881958 3272.432861,2001.773926 
	C3314.020752,2015.763306 3336.719971,2045.960449 3344.162354,2088.246582 
	C3348.947510,2115.435303 3346.301514,2142.501709 3340.365479,2169.269775 
	C3336.208496,2188.016113 3331.681641,2206.680176 3327.097656,2226.333984 
	C3323.169434,2226.333984 3319.589600,2226.333740 3316.009766,2226.333740 
	C3241.691406,2226.333740 3167.372803,2226.332764 3093.054443,2226.338135 
	C3090.390137,2226.338379 3087.510742,2225.803467 3085.137939,2226.652832 
	C3083.601318,2227.203125 3082.804932,2229.820557 3081.674316,2232.458496 
M3181.000000,2155.684814 
	C3201.236572,2155.684814 3221.473145,2155.684814 3242.251465,2155.684814 
	C3245.496826,2144.016113 3248.643311,2132.677734 3247.470215,2121.143555 
	C3245.201416,2098.837891 3236.680908,2084.458984 3213.228516,2079.152588 
	C3193.518311,2074.693115 3173.503662,2076.434814 3155.249023,2086.653564 
	C3129.002441,2101.346191 3113.616699,2124.963867 3102.491943,2151.933105 
	C3102.086670,2152.916260 3102.577393,2154.269531 3102.645020,2155.358887 
	C3103.849854,2155.505371 3104.507568,2155.654541 3105.165283,2155.655029 
	C3129.776855,2155.673584 3154.388428,2155.678223 3181.000000,2155.684814 
z"/>
<path fill="#FDFDFD" opacity="1.000000" stroke="none" 
	d="
M3638.226074,1993.663452 
	C3653.798096,1993.886230 3668.398926,1993.000610 3682.912354,1996.132935 
	C3704.373047,2000.764893 3722.160400,2010.634888 3733.430420,2030.032837 
	C3741.828857,2044.488525 3744.000000,2060.625977 3744.311035,2077.028564 
	C3744.774414,2101.479248 3739.688721,2125.137207 3733.783936,2148.681885 
	C3714.491943,2225.607178 3695.288086,2302.554199 3676.022461,2379.486084 
	C3675.550537,2381.369873 3674.762207,2383.174072 3674.055664,2385.205566 
	C3639.923340,2385.205566 3606.093506,2385.205566 3571.053467,2385.205566 
	C3573.136963,2376.514160 3574.991211,2368.510254 3576.976807,2360.539062 
	C3595.504395,2286.155518 3614.105713,2211.790039 3632.514648,2137.377197 
	C3634.252930,2130.350098 3635.562500,2123.059326 3635.803467,2115.848633 
	C3636.641357,2090.788818 3624.475342,2081.787109 3605.452148,2078.661865 
	C3569.456787,2072.748535 3539.299805,2084.533203 3515.508057,2112.156250 
	C3513.484863,2114.505127 3512.510986,2118.002930 3511.724609,2121.136475 
	C3490.397705,2206.102783 3469.161865,2291.091553 3447.894287,2376.072510 
	C3447.171875,2378.959229 3446.280762,2381.803223 3445.333008,2385.143555 
	C3411.148438,2385.143555 3377.019531,2385.143555 3341.822998,2385.143555 
	C3374.014648,2256.426270 3406.019775,2128.455322 3437.976562,2000.677979 
	C3470.806152,2000.677979 3502.737549,2000.677979 3535.491211,2000.677979 
	C3533.277832,2014.025024 3531.140625,2026.914185 3528.535400,2042.625000 
	C3561.000000,2014.041138 3595.810547,1996.126343 3638.226074,1993.663452 
z"/>
<path fill="#FDFDFD" opacity="1.000000" stroke="none" 
	d="
M2795.099609,2363.193359 
	C2790.437988,2370.919922 2786.214355,2378.059570 2781.915527,2385.326660 
	C2749.398438,2385.326660 2717.169922,2385.326660 2684.426270,2385.326660 
	C2683.770996,2383.660156 2682.594238,2381.916748 2682.441162,2380.087646 
	C2680.754395,2359.941650 2679.381348,2339.769043 2677.617188,2319.630127 
	C2675.364258,2293.910645 2672.736572,2268.224121 2670.449951,2242.507324 
	C2668.836182,2224.357666 2667.614990,2206.173340 2666.050781,2188.018555 
	C2663.406494,2157.331055 2660.593994,2126.658203 2657.918945,2095.973145 
	C2655.272949,2065.620117 2652.705322,2035.260254 2650.122559,2004.901733 
	C2650.017822,2003.671143 2650.109131,2002.423828 2650.109131,2000.754395 
	C2685.792725,2000.754395 2721.003418,2000.754395 2756.984863,2000.754395 
	C2757.431885,2003.568115 2758.178955,2006.415161 2758.290283,2009.286865 
	C2758.843750,2023.551636 2759.384277,2037.820312 2759.637939,2052.092773 
	C2760.004883,2072.729492 2759.973633,2093.373779 2760.381348,2114.009521 
	C2760.893799,2139.925293 2761.615479,2165.837402 2762.365723,2191.747803 
	C2762.942383,2211.666748 2763.696533,2231.580322 2764.416992,2251.494873 
	C2764.434570,2251.978027 2764.984375,2252.442139 2766.071533,2254.148926 
	C2810.678711,2169.333252 2854.948975,2085.159180 2899.306641,2000.818359 
	C2935.152100,2000.818359 2970.565918,2000.818359 3007.555908,2000.818359 
	C3002.252441,2010.075684 2997.614502,2018.353149 2992.808838,2026.532104 
	C2938.109619,2119.621582 2883.373535,2212.689453 2828.676270,2305.780029 
	C2817.567871,2324.685547 2806.580566,2343.662354 2795.099609,2363.193359 
z"/>
<path fill="#FEFEFE" opacity="1.000000" stroke="none" 
	d="
M2029.639282,2119.324707 
	C2033.184082,2104.714844 2036.579590,2090.920898 2040.164185,2076.358398 
	C2021.340210,2076.358398 2003.426880,2076.358398 1984.341553,2076.358398 
	C1990.744995,2050.682617 1996.939453,2025.844116 2003.274170,2000.443481 
	C2022.109741,2000.443481 2040.324097,2000.443481 2059.205322,2000.443481 
	C2067.145020,1968.809692 2074.948730,1937.718262 2082.868896,1906.162109 
	C2117.062500,1906.162109 2151.251465,1906.162109 2186.502441,1906.162109 
	C2178.763672,1937.322388 2171.129639,1968.060547 2163.218750,1999.913330 
	C2185.145508,1999.913330 2206.244141,1999.913330 2228.835693,1999.913330 
	C2222.312744,2026.078003 2216.105713,2050.975098 2209.828125,2076.155518 
	C2187.922119,2076.155518 2166.641602,2076.155518 2144.301270,2076.155518 
	C2141.918457,2085.476318 2139.525635,2094.641357 2137.234375,2103.832031 
	C2123.351318,2159.516113 2109.478271,2215.202637 2095.654053,2270.901367 
	C2094.780273,2274.421143 2094.014160,2278.025146 2093.755859,2281.630127 
	C2092.669922,2296.792725 2099.301025,2305.261230 2114.553711,2305.918457 
	C2127.080322,2306.458252 2139.691895,2305.015137 2152.266846,2304.481934 
	C2153.202148,2304.442139 2154.147949,2304.653076 2156.318604,2304.870850 
	C2149.870850,2330.834717 2143.518311,2356.414795 2136.895752,2383.081787 
	C2126.989014,2385.221680 2116.787598,2388.018555 2106.399658,2389.544434 
	C2085.666016,2392.589844 2064.816895,2393.708496 2043.988525,2390.065918 
	C2029.405518,2387.515137 2015.628418,2383.104004 2004.331055,2372.887695 
	C1990.649292,2360.514893 1985.289795,2344.615234 1984.308594,2326.727783 
	C1983.088867,2304.493408 1988.489624,2283.282227 1993.867432,2262.021973 
	C2005.825195,2214.749268 2017.625488,2167.436768 2029.639282,2119.324707 
z"/>
<path fill="#FDFDFD" opacity="1.000000" stroke="none" 
	d="
M3907.594727,2300.424561 
	C3913.156494,2302.686523 3918.048584,2305.754395 3923.053955,2305.952637 
	C3936.258789,2306.474854 3949.512695,2305.751709 3964.051514,2305.502197 
	C3962.697021,2318.069580 3958.097412,2330.738525 3955.189209,2343.707764 
	C3952.286621,2356.652344 3948.742920,2369.453369 3945.383057,2382.702148 
	C3929.685791,2387.914795 3913.324951,2390.625732 3896.864746,2391.428711 
	C3882.356689,2392.136475 3867.587891,2391.946533 3853.219727,2390.021484 
	C3832.595215,2387.258789 3813.832520,2379.437988 3802.353760,2360.593750 
	C3792.646973,2344.657471 3790.855225,2326.869873 3792.972168,2308.663086 
	C3796.818604,2275.581055 3807.318848,2243.979492 3815.035156,2211.767822 
	C3825.544434,2167.897949 3836.746094,2124.193848 3847.615479,2080.410156 
	C3847.846924,2079.477539 3847.644531,2078.437256 3847.644531,2076.649902 
	C3829.811523,2076.649902 3812.020264,2076.649902 3792.570557,2076.649902 
	C3799.014160,2050.686768 3805.177002,2025.855591 3811.481934,2000.451172 
	C3830.338867,2000.451172 3848.542236,2000.451172 3867.434082,2000.451172 
	C3875.378906,1968.819702 3883.186035,1937.737671 3891.107666,1906.198975 
	C3925.447266,1906.198975 3959.605469,1906.198975 3994.759033,1906.198975 
	C3986.968506,1937.545776 3979.311768,1968.354492 3971.396973,2000.201172 
	C3993.343018,2000.201172 4014.508789,2000.201172 4037.001953,2000.201172 
	C4030.568604,2026.049683 4024.425293,2050.732910 4018.114258,2076.089844 
	C3996.326904,2076.089844 3974.807373,2076.089844 3952.477051,2076.089844 
	C3949.300537,2088.748291 3946.232422,2100.871094 3943.217773,2113.007080 
	C3929.942627,2166.450928 3916.618652,2219.882812 3903.479248,2273.359863 
	C3901.230469,2282.513184 3900.456299,2291.777588 3907.594727,2300.424561 
z"/>
<path fill="#FEFEFE" opacity="1.000000" stroke="none" 
	d="
M354.007568,2838.000488 
	C353.922058,2839.366211 353.547699,2840.459961 353.173309,2841.553955 
	C352.862671,2841.505859 352.552002,2841.458008 352.241364,2841.410156 
	C352.241364,2840.290527 352.241364,2839.171143 352.690491,2837.618896 
	C353.139648,2837.186279 353.718658,2837.728516 354.007568,2838.000488 
z"/>
<path fill="#040404" opacity="1.000000" stroke="none" 
	d="
M1789.999756,2155.685303 
	C1759.701782,2155.685303 1730.403809,2155.685303 1700.116699,2155.685303 
	C1707.136719,2136.187744 1716.949463,2119.195557 1730.848267,2104.610107 
	C1742.821533,2092.045410 1757.049438,2083.136719 1774.024780,2079.206543 
	C1786.114746,2076.407471 1798.586914,2076.196289 1810.590942,2078.826416 
	C1836.289307,2084.457031 1846.353638,2101.925781 1846.111572,2126.782715 
	C1846.019653,2136.216064 1843.428955,2145.625000 1841.878540,2155.685303 
	C1824.198364,2155.685303 1807.599121,2155.685303 1789.999756,2155.685303 
z"/>
<path fill="#040404" opacity="1.000000" stroke="none" 
	d="
M3180.000000,2155.684814 
	C3154.388428,2155.678223 3129.776855,2155.673584 3105.165283,2155.655029 
	C3104.507568,2155.654541 3103.849854,2155.505371 3102.645020,2155.358887 
	C3102.577393,2154.269531 3102.086670,2152.916260 3102.491943,2151.933105 
	C3113.616699,2124.963867 3129.002441,2101.346191 3155.249023,2086.653564 
	C3173.503662,2076.434814 3193.518311,2074.693115 3213.228516,2079.152588 
	C3236.680908,2084.458984 3245.201416,2098.837891 3247.470215,2121.143555 
	C3248.643311,2132.677734 3245.496826,2144.016113 3242.251465,2155.684814 
	C3221.473145,2155.684814 3201.236572,2155.684814 3180.000000,2155.684814 
z"/>
</svg>