<svg version="1.1" id="Layer_1" xmlns="http://www.w3.org/2000/svg" xmlns:xlink="http://www.w3.org/1999/xlink" x="0px" y="0px"
	 width="100%" viewBox="0 0 4096 4096" enable-background="new 0 0 4096 4096" xml:space="preserve">
<path fill="#000000" opacity="1.000000" stroke="none" 
	d="
M2168.000000,4098.000000 
	C1445.333374,4098.000000 723.666687,4098.000000 2.000000,4098.000000 
	C2.000000,2732.666748 2.000000,1367.333374 2.000000,2.000000 
	C1367.333374,2.000000 2732.666748,2.000000 4098.000000,2.000000 
	C4098.000000,1367.333374 4098.000000,2732.666748 4098.000000,4098.000000 
	C3455.000000,4098.000000 2812.000000,4098.000000 2168.000000,4098.000000 
M355.584808,2837.811523 
	C362.490845,2827.626709 369.428467,2817.463379 376.297943,2807.253906 
	C427.377258,2731.339844 478.452362,2655.422852 529.510132,2579.494141 
	C582.421509,2500.809082 635.315002,2422.111816 688.210266,2343.415771 
	C717.351135,2300.060303 746.485840,2256.700928 775.612549,2213.335938 
	C821.807373,2144.559570 867.988037,2075.773926 914.184326,2006.998291 
	C937.929199,1971.647705 961.716187,1936.325195 985.414978,1900.943848 
	C987.502563,1897.827271 989.076538,1894.366821 991.901245,1889.222900 
	C948.155762,1886.613159 906.525330,1884.282471 864.917358,1881.604004 
	C823.450500,1878.934448 782.006104,1875.916016 740.288574,1873.032349 
	C740.653320,1871.311646 740.798157,1870.346680 741.063721,1869.416382 
	C751.446472,1833.042969 761.844849,1796.673950 772.231567,1760.301636 
	C791.820129,1691.705811 811.315918,1623.083252 831.008911,1554.517334 
	C858.396118,1459.162109 885.944397,1363.853027 913.351746,1268.503418 
	C914.628845,1264.060303 915.204224,1259.415527 916.106323,1254.864502 
	C911.974060,1256.869995 909.480347,1259.453125 907.354309,1262.309814 
	C898.820984,1273.775879 890.373108,1285.305786 881.944641,1296.849365 
	C836.268860,1359.406494 790.648438,1422.004028 744.931152,1484.530762 
	C700.000366,1545.981934 654.928955,1607.330322 610.005676,1668.786987 
	C556.450562,1742.052490 503.041199,1815.424438 449.469421,1888.677734 
	C395.306915,1962.738647 341.018280,2036.707397 286.813293,2110.737305 
	C284.965759,2113.260498 283.426361,2116.009766 281.197113,2119.511719 
	C289.711761,2120.336914 296.584503,2121.116211 303.476349,2121.649414 
	C324.631012,2123.287109 345.806519,2124.669922 366.948700,2126.451172 
	C393.671326,2128.702881 420.356995,2131.394287 447.081390,2133.623047 
	C468.555603,2135.413818 490.076141,2136.646240 511.553772,2138.400146 
	C542.255981,2140.906738 572.938293,2143.658203 603.627869,2146.318115 
	C609.767578,2146.850342 615.902283,2147.440918 622.555908,2148.052002 
	C621.633850,2150.866455 621.112671,2152.766113 620.399048,2154.590332 
	C600.924316,2204.369629 581.454163,2254.151123 561.932861,2303.912109 
	C534.651001,2373.456055 507.324768,2442.982666 480.024109,2512.519287 
	C448.355316,2593.181641 416.653015,2673.831299 385.051514,2754.520020 
	C374.280273,2782.022461 363.770294,2809.627197 352.242035,2838.050049 
	C352.242035,2839.169678 352.242035,2840.289551 352.242035,2841.409180 
	C352.552399,2841.457031 352.862762,2841.505127 353.173157,2841.553223 
	C353.547607,2840.459473 353.922089,2839.365967 355.584808,2837.811523 
M1269.039551,2392.334717 
	C1282.966797,2391.658203 1296.926514,2391.372803 1310.814575,2390.222900 
	C1338.687134,2387.915527 1365.967529,2382.281494 1392.479614,2373.414795 
	C1425.199829,2362.471680 1455.684448,2347.316650 1482.136475,2324.651855 
	C1486.244629,2321.131836 1488.476196,2317.269531 1489.709351,2312.357910 
	C1505.633179,2248.932861 1521.580200,2185.514160 1537.474487,2122.081787 
	C1538.231201,2119.061523 1538.549683,2115.931641 1539.070068,2112.865234 
	C1470.752197,2112.865234 1403.205078,2112.865234 1335.180908,2112.865234 
	C1328.530151,2139.111328 1321.980225,2164.959961 1315.159058,2191.878906 
	C1348.257080,2191.878906 1379.821777,2191.878906 1412.157837,2191.878906 
	C1404.908447,2220.742676 1397.991455,2248.738525 1390.694336,2276.635254 
	C1389.958008,2279.450439 1387.408325,2282.419189 1384.881226,2284.037842 
	C1365.784058,2296.269287 1344.764893,2303.094238 1322.143433,2304.207275 
	C1308.961304,2304.855713 1295.696899,2304.839844 1282.511841,2304.219971 
	C1253.831055,2302.871826 1225.894409,2286.154541 1215.546265,2256.099121 
	C1207.090576,2231.540039 1207.128052,2206.471680 1211.283691,2181.513916 
	C1215.199219,2157.997803 1220.688232,2134.697266 1226.476074,2111.549561 
	C1235.373657,2075.965332 1247.085083,2041.306030 1268.033325,2010.735229 
	C1294.169556,1972.593750 1328.108276,1947.373779 1376.792236,1947.521973 
	C1389.468994,1947.560547 1401.999390,1947.920410 1414.100830,1951.990845 
	C1424.598511,1955.522095 1433.997437,1960.572510 1441.314209,1969.477173 
	C1451.599609,1981.994263 1454.715332,1996.627563 1455.594482,2012.082397 
	C1455.966064,2018.615234 1455.656494,2025.186768 1455.656494,2031.742676 
	C1490.873657,2031.742676 1525.030640,2031.742676 1559.522705,2031.742676 
	C1562.458496,2011.785522 1562.858643,1992.434692 1560.446045,1972.873535 
	C1553.672729,1917.954102 1519.597168,1881.844604 1466.321899,1868.290771 
	C1435.890381,1860.548584 1404.902954,1858.734375 1373.479858,1861.433105 
	C1353.146240,1863.179199 1333.345703,1866.860474 1314.117798,1873.246094 
	C1269.327515,1888.120972 1231.310181,1913.338379 1199.736084,1948.585693 
	C1174.156128,1977.141846 1154.643677,2009.246094 1139.524780,2044.354370 
	C1125.258789,2077.482178 1116.461182,2112.184326 1108.288330,2147.107910 
	C1100.077271,2182.194092 1095.552734,2217.609863 1099.677979,2253.702148 
	C1102.267334,2276.357666 1108.177979,2298.044678 1119.502075,2317.964355 
	C1140.739136,2355.321289 1173.870728,2376.620850 1214.867554,2385.810791 
	C1231.895752,2389.628174 1249.640991,2390.246826 1269.039551,2392.334717 
M2657.452393,1924.413330 
	C2661.991699,1905.785889 2666.531006,1887.158447 2671.151855,1868.195801 
	C2555.082764,1868.195801 2439.906982,1868.195801 2324.557373,1868.195801 
	C2281.435791,2040.707764 2238.429443,2212.759033 2195.333740,2385.166992 
	C2311.919434,2385.166992 2427.091797,2385.166992 2542.827393,2385.166992 
	C2550.042236,2356.271240 2557.170898,2327.720947 2564.504639,2298.348633 
	C2484.325928,2298.348633 2405.090820,2298.348633 2324.809082,2298.348633 
	C2336.320557,2252.320068 2347.620117,2207.138672 2359.066895,2161.368164 
	C2427.581787,2161.368164 2495.442383,2161.368164 2563.394531,2161.368164 
	C2570.465332,2132.790039 2577.356689,2104.936768 2584.542725,2075.893066 
	C2515.791992,2075.893066 2448.380615,2075.893066 2380.149902,2075.893066 
	C2390.456787,2034.748169 2400.492432,1994.685669 2410.612793,1954.284790 
	C2490.856201,1954.284790 2570.097656,1954.284790 2649.898193,1954.284790 
	C2652.282959,1944.546021 2654.559814,1935.248779 2657.452393,1924.413330 
M1846.724731,2273.792725 
	C1817.801025,2298.252930 1784.468262,2310.074219 1746.562500,2308.280029 
	C1722.267578,2307.130127 1701.952271,2298.226318 1689.161987,2276.376221 
	C1680.247925,2261.148193 1679.282104,2244.455078 1680.886841,2226.250488 
	C1762.703125,2226.250488 1844.127808,2226.250488 1925.574707,2226.250488 
	C1929.738159,2209.423340 1933.985718,2193.723389 1937.471069,2177.855957 
	C1944.255371,2146.971436 1948.829590,2115.901855 1942.267700,2084.302979 
	C1933.822266,2043.634155 1910.764160,2015.672485 1871.190918,2001.589478 
	C1843.135132,1991.605347 1813.979736,1991.076782 1785.446777,1994.926147 
	C1719.694336,2003.796753 1668.722412,2038.227417 1630.151001,2091.585938 
	C1608.274658,2121.848877 1593.525391,2155.506104 1584.403320,2191.578857 
	C1577.401733,2219.266357 1572.286255,2247.083740 1575.466309,2276.103760 
	C1581.030151,2326.875488 1613.434570,2368.734131 1665.383911,2384.153076 
	C1695.781616,2393.175293 1726.738159,2394.117676 1758.032349,2389.952881 
	C1798.051147,2384.626953 1834.331543,2370.014648 1866.786621,2346.152100 
	C1876.271851,2339.178223 1884.859497,2330.983154 1893.988525,2323.237549 
	C1880.831543,2303.390625 1869.416382,2284.099365 1856.370117,2265.640869 
	C1852.840088,2268.566162 1850.289062,2270.679932 1846.724731,2273.792725 
M3128.227539,2011.170654 
	C3094.259521,2026.402832 3065.629150,2048.587402 3042.115723,2077.400146 
	C3013.009521,2113.066406 2994.491943,2153.791016 2983.916504,2198.422852 
	C2977.136475,2227.036865 2972.389404,2255.781006 2977.960449,2285.100342 
	C2987.017822,2332.772217 3014.308594,2365.509277 3060.151123,2381.821777 
	C3091.364990,2392.928711 3123.682861,2394.346191 3156.404053,2390.356934 
	C3194.352051,2385.730469 3229.209229,2372.872070 3260.758789,2351.342041 
	C3273.014404,2342.978271 3284.763916,2333.870117 3294.738525,2322.289062 
	C3281.624023,2303.281494 3270.689453,2283.719238 3257.742920,2266.011963 
	C3249.467285,2272.402832 3242.368652,2278.448486 3234.720459,2283.692871 
	C3203.734375,2304.940186 3169.535156,2313.096924 3132.539795,2306.119385 
	C3094.549072,2298.953857 3075.692627,2262.541016 3083.376709,2226.207031 
	C3164.334473,2226.207031 3245.483643,2226.207031 3326.892822,2226.207031 
	C3331.178955,2208.738281 3335.607422,2192.106201 3339.303223,2175.312744 
	C3345.684326,2146.317139 3349.471924,2116.990723 3344.073975,2087.447754 
	C3336.439941,2045.667603 3313.665039,2016.149048 3272.712646,2001.689575 
	C3247.648682,1992.839844 3221.808350,1992.694824 3195.900146,1994.101807 
	C3172.870850,1995.352417 3150.849121,2001.600098 3128.227539,2011.170654 
M3647.039062,1993.662109 
	C3635.190186,1994.889526 3623.143311,1995.151123 3611.531982,1997.535645 
	C3583.259033,2003.341553 3558.848145,2017.253052 3536.842529,2035.639526 
	C3534.718018,2037.414429 3532.360107,2038.910156 3528.714600,2041.544189 
	C3531.155762,2026.763672 3533.277588,2013.916626 3535.471680,2000.633301 
	C3502.542969,2000.633301 3470.607666,2000.633301 3437.981445,2000.633301 
	C3405.987793,2128.572021 3373.979736,2256.567627 3341.848389,2385.056641 
	C3377.094971,2385.056641 3411.235352,2385.056641 3445.380615,2385.056641 
	C3446.343750,2381.618896 3447.217773,2378.768555 3447.940430,2375.880615 
	C3469.204346,2290.900391 3490.437500,2205.912842 3511.768066,2120.949219 
	C3512.552002,2117.825684 3513.613281,2114.371582 3515.644775,2112.022461 
	C3539.207520,2084.780273 3568.886719,2073.259277 3604.675537,2078.426758 
	C3626.218750,2081.537598 3636.911621,2094.406006 3635.781250,2116.031738 
	C3635.404297,2123.250732 3634.205078,2130.531738 3632.469238,2137.559082 
	C3612.891602,2216.808594 3593.133301,2296.013916 3573.440674,2375.235107 
	C3572.664062,2378.359863 3572.060303,2381.527588 3571.258545,2385.214600 
	C3606.194824,2385.214600 3640.035889,2385.214600 3674.148193,2385.214600 
	C3674.868164,2383.020508 3675.595459,2381.197266 3676.066650,2379.310059 
	C3696.157227,2298.822754 3716.239746,2218.333252 3736.285400,2137.834473 
	C3742.166748,2114.216553 3745.879883,2090.376953 3743.698242,2065.901123 
	C3740.325684,2028.063232 3721.032715,2004.580078 3684.645020,1996.697144 
	C3673.092529,1994.194336 3660.911865,1994.591675 3647.039062,1993.662109 
M2678.260742,2326.892334 
	C2680.141357,2346.435059 2680.779785,2366.126465 2683.795166,2385.516113 
	C2717.233887,2385.516113 2749.202637,2385.516113 2781.890137,2385.516113 
	C2856.888428,2257.818115 2932.022949,2129.887695 3007.823486,2000.823853 
	C2970.513916,2000.823853 2935.081055,2000.823853 2899.301758,2000.823853 
	C2854.911133,2085.221924 2810.649414,2169.375488 2766.387451,2253.529053 
	C2763.978271,2232.072510 2763.040283,2211.298096 2762.374756,2190.514893 
	C2761.576904,2165.596924 2760.919189,2140.673828 2760.368164,2115.749268 
	C2759.610840,2081.496826 2759.038818,2047.240479 2758.308350,2012.987427 
	C2758.219971,2008.828003 2757.644287,2004.678711 2757.321777,2000.847412 
	C2720.751953,2000.847412 2685.523438,2000.847412 2649.524414,2000.847412 
	C2651.596191,2022.487183 2653.719727,2043.532593 2655.603027,2064.599609 
	C2658.375732,2095.618652 2660.992188,2126.652100 2663.647461,2157.681396 
	C2666.472656,2190.695557 2669.267822,2223.712402 2672.072021,2256.728271 
	C2674.007080,2279.509033 2675.934814,2302.290283 2678.260742,2326.892334 
M2184.581299,1913.510010 
	C2185.047607,1911.102173 2185.513916,1908.694336 2186.035645,1906.000488 
	C2151.207275,1906.000488 2117.309326,1906.000488 2082.934570,1906.000488 
	C2075.005371,1937.518555 2067.125244,1968.841797 2059.119873,2000.662231 
	C2040.020996,2000.662231 2021.811401,2000.662231 2003.220215,2000.662231 
	C1996.892578,2025.993164 1990.721558,2050.696533 1984.300415,2076.401855 
	C2003.065430,2076.401855 2021.203979,2076.401855 2039.929932,2076.401855 
	C2039.413086,2078.973633 2039.157471,2080.575195 2038.766357,2082.143066 
	C2024.149658,2140.717041 2009.530762,2199.290527 1994.888428,2257.858154 
	C1989.256104,2280.385986 1983.186768,2302.786377 1984.259033,2326.412598 
	C1985.596680,2355.887207 2000.495850,2377.657715 2027.347168,2385.662109 
	C2039.285522,2389.220703 2051.965576,2391.164795 2064.425293,2391.916992 
	C2089.061523,2393.403564 2113.243652,2389.659180 2137.051514,2382.639648 
	C2143.109863,2356.405762 2150.581787,2330.882324 2156.021484,2304.584229 
	C2148.324463,2305.249512 2142.098145,2306.014404 2135.851074,2306.265625 
	C2129.199707,2306.533203 2122.508301,2306.649170 2115.870605,2306.242432 
	C2099.533447,2305.240479 2092.432373,2297.071289 2093.815186,2280.972168 
	C2094.209717,2276.375244 2095.163086,2271.785645 2096.282715,2267.298096 
	C2109.209961,2215.481934 2122.216797,2163.685547 2135.206543,2111.885254 
	C2138.167969,2100.075195 2141.145508,2088.269531 2144.226562,2076.020996 
	C2166.580322,2076.020996 2188.136719,2076.020996 2209.879639,2076.020996 
	C2216.192383,2050.705322 2222.355957,2025.988281 2228.793945,2000.169800 
	C2206.465576,2000.169800 2185.293701,2000.169800 2163.147461,2000.169800 
	C2170.365479,1971.148071 2177.319824,1943.187256 2184.581299,1913.510010 
M3844.258789,2093.229248 
	C3835.071289,2130.275391 3825.515869,2167.235596 3816.802979,2204.393311 
	C3808.629883,2239.247314 3797.256592,2273.389160 3792.846680,2309.086670 
	C3790.943115,2324.495605 3792.500000,2339.730469 3798.808105,2353.993652 
	C3808.527588,2375.971680 3827.730713,2385.460449 3849.773193,2389.587646 
	C3882.020508,2395.625244 3913.757568,2391.332031 3944.882568,2383.037354 
	C3954.530762,2351.806885 3963.799072,2311.621826 3962.987549,2304.846680 
	C3956.768799,2305.340332 3950.561768,2306.040771 3944.337891,2306.270508 
	C3937.680664,2306.515869 3930.991699,2306.606934 3924.343750,2306.255371 
	C3908.191895,2305.400879 3901.416504,2298.065674 3902.358887,2282.058838 
	C3902.706055,2276.165771 3904.054443,2270.272217 3905.481445,2264.511719 
	C3918.651855,2211.343262 3931.933838,2158.202881 3945.198730,2105.058105 
	C3947.578369,2095.523926 3950.028809,2086.007568 3952.492432,2076.302002 
	C3974.817871,2076.302002 3996.109375,2076.302002 4018.049316,2076.302002 
	C4024.320801,2051.097656 4030.515625,2026.201416 4037.047363,1999.951050 
	C4014.287598,1999.951050 3993.209229,1999.951050 3971.468262,1999.951050 
	C3979.374512,1968.091309 3987.001465,1937.355957 3994.696777,1906.345947 
	C3959.223633,1906.345947 3925.060059,1906.345947 3891.042725,1906.345947 
	C3883.139648,1937.879639 3875.405273,1968.739868 3867.524658,2000.183350 
	C3848.909912,2000.183350 3830.668213,2000.183350 3811.591553,2000.183350 
	C3805.255615,2025.592651 3799.039795,2050.521240 3792.584717,2076.409180 
	C3811.758789,2076.409180 3829.642090,2076.409180 3848.404053,2076.409180 
	C3846.973145,2082.044189 3845.759521,2086.822510 3844.258789,2093.229248 
z"/>
<path fill="#FEFEFE" opacity="1.000000" stroke="none" 
	d="
M353.140961,2837.185059 
	C363.770294,2809.627197 374.280273,2782.022461 385.051514,2754.520020 
	C416.653015,2673.831299 448.355316,2593.181641 480.024109,2512.519287 
	C507.324768,2442.982666 534.651001,2373.456055 561.932861,2303.912109 
	C581.454163,2254.151123 600.924316,2204.369629 620.399048,2154.590332 
	C621.112671,2152.766113 621.633850,2150.866455 622.555908,2148.052002 
	C615.902283,2147.440918 609.767578,2146.850342 603.627869,2146.318115 
	C572.938293,2143.658203 542.255981,2140.906738 511.553772,2138.400146 
	C490.076141,2136.646240 468.555603,2135.413818 447.081390,2133.623047 
	C420.356995,2131.394287 393.671326,2128.702881 366.948700,2126.451172 
	C345.806519,2124.669922 324.631012,2123.287109 303.476349,2121.649414 
	C296.584503,2121.116211 289.711761,2120.336914 281.197113,2119.511719 
	C283.426361,2116.009766 284.965759,2113.260498 286.813293,2110.737305 
	C341.018280,2036.707397 395.306915,1962.738647 449.469421,1888.677734 
	C503.041199,1815.424438 556.450562,1742.052490 610.005676,1668.786987 
	C654.928955,1607.330322 700.000366,1545.981934 744.931152,1484.530762 
	C790.648438,1422.004028 836.268860,1359.406494 881.944641,1296.849365 
	C890.373108,1285.305786 898.820984,1273.775879 907.354309,1262.309814 
	C909.480347,1259.453125 911.974060,1256.869995 916.106323,1254.864502 
	C915.204224,1259.415527 914.628845,1264.060303 913.351746,1268.503418 
	C885.944397,1363.853027 858.396118,1459.162109 831.008911,1554.517334 
	C811.315918,1623.083252 791.820129,1691.705811 772.231567,1760.301636 
	C761.844849,1796.673950 751.446472,1833.042969 741.063721,1869.416382 
	C740.798157,1870.346680 740.653320,1871.311646 740.288574,1873.032349 
	C782.006104,1875.916016 823.450500,1878.934448 864.917358,1881.604004 
	C906.525330,1884.282471 948.155762,1886.613159 991.901245,1889.222900 
	C989.076538,1894.366821 987.502563,1897.827271 985.414978,1900.943848 
	C961.716187,1936.325195 937.929199,1971.647705 914.184326,2006.998291 
	C867.988037,2075.773926 821.807373,2144.559570 775.612549,2213.335938 
	C746.485840,2256.700928 717.351135,2300.060303 688.210266,2343.415771 
	C635.315002,2422.111816 582.421509,2500.809082 529.510132,2579.494141 
	C478.452362,2655.422852 427.377258,2731.339844 376.297943,2807.253906 
	C369.428467,2817.463379 362.490845,2827.626709 354.652100,2837.769531 
	C353.719391,2837.727783 353.140991,2837.185059 353.140961,2837.185059 
z"/>
<path fill="#FDFDFD" opacity="1.000000" stroke="none" 
	d="
M1268.049805,2392.327393 
	C1249.640991,2390.246826 1231.895752,2389.628174 1214.867554,2385.810791 
	C1173.870728,2376.620850 1140.739136,2355.321289 1119.502075,2317.964355 
	C1108.177979,2298.044678 1102.267334,2276.357666 1099.677979,2253.702148 
	C1095.552734,2217.609863 1100.077271,2182.194092 1108.288330,2147.107910 
	C1116.461182,2112.184326 1125.258789,2077.482178 1139.524780,2044.354370 
	C1154.643677,2009.246094 1174.156128,1977.141846 1199.736084,1948.585693 
	C1231.310181,1913.338379 1269.327515,1888.120972 1314.117798,1873.246094 
	C1333.345703,1866.860474 1353.146240,1863.179199 1373.479858,1861.433105 
	C1404.902954,1858.734375 1435.890381,1860.548584 1466.321899,1868.290771 
	C1519.597168,1881.844604 1553.672729,1917.954102 1560.446045,1972.873535 
	C1562.858643,1992.434692 1562.458496,2011.785522 1559.522705,2031.742676 
	C1525.030640,2031.742676 1490.873657,2031.742676 1455.656494,2031.742676 
	C1455.656494,2025.186768 1455.966064,2018.615234 1455.594482,2012.082397 
	C1454.715332,1996.627563 1451.599609,1981.994263 1441.314209,1969.477173 
	C1433.997437,1960.572510 1424.598511,1955.522095 1414.100830,1951.990845 
	C1401.999390,1947.920410 1389.468994,1947.560547 1376.792236,1947.521973 
	C1328.108276,1947.373779 1294.169556,1972.593750 1268.033325,2010.735229 
	C1247.085083,2041.306030 1235.373657,2075.965332 1226.476074,2111.549561 
	C1220.688232,2134.697266 1215.199219,2157.997803 1211.283691,2181.513916 
	C1207.128052,2206.471680 1207.090576,2231.540039 1215.546265,2256.099121 
	C1225.894409,2286.154541 1253.831055,2302.871826 1282.511841,2304.219971 
	C1295.696899,2304.839844 1308.961304,2304.855713 1322.143433,2304.207275 
	C1344.764893,2303.094238 1365.784058,2296.269287 1384.881226,2284.037842 
	C1387.408325,2282.419189 1389.958008,2279.450439 1390.694336,2276.635254 
	C1397.991455,2248.738525 1404.908447,2220.742676 1412.157837,2191.878906 
	C1379.821777,2191.878906 1348.257080,2191.878906 1315.159058,2191.878906 
	C1321.980225,2164.959961 1328.530151,2139.111328 1335.180908,2112.865234 
	C1403.205078,2112.865234 1470.752197,2112.865234 1539.070068,2112.865234 
	C1538.549683,2115.931641 1538.231201,2119.061523 1537.474487,2122.081787 
	C1521.580200,2185.514160 1505.633179,2248.932861 1489.709351,2312.357910 
	C1488.476196,2317.269531 1486.244629,2321.131836 1482.136475,2324.651855 
	C1455.684448,2347.316650 1425.199829,2362.471680 1392.479614,2373.414795 
	C1365.967529,2382.281494 1338.687134,2387.915527 1310.814575,2390.222900 
	C1296.926514,2391.372803 1282.966797,2391.658203 1268.049805,2392.327393 
z"/>
<path fill="#FDFDFD" opacity="1.000000" stroke="none" 
	d="
M2657.144531,1925.182373 
	C2654.559814,1935.248779 2652.282959,1944.546021 2649.898193,1954.284790 
	C2570.097656,1954.284790 2490.856201,1954.284790 2410.612793,1954.284790 
	C2400.492432,1994.685669 2390.456787,2034.748169 2380.149902,2075.893066 
	C2448.380615,2075.893066 2515.791992,2075.893066 2584.542725,2075.893066 
	C2577.356689,2104.936768 2570.465332,2132.790039 2563.394531,2161.368164 
	C2495.442383,2161.368164 2427.581787,2161.368164 2359.066895,2161.368164 
	C2347.620117,2207.138672 2336.320557,2252.320068 2324.809082,2298.348633 
	C2405.090820,2298.348633 2484.325928,2298.348633 2564.504639,2298.348633 
	C2557.170898,2327.720947 2550.042236,2356.271240 2542.827393,2385.166992 
	C2427.091797,2385.166992 2311.919434,2385.166992 2195.333740,2385.166992 
	C2238.429443,2212.759033 2281.435791,2040.707764 2324.557373,1868.195801 
	C2439.906982,1868.195801 2555.082764,1868.195801 2671.151855,1868.195801 
	C2666.531006,1887.158447 2661.991699,1905.785889 2657.144531,1925.182373 
z"/>
<path fill="#FEFEFE" opacity="1.000000" stroke="none" 
	d="
M1847.231445,2273.293457 
	C1850.289062,2270.679932 1852.840088,2268.566162 1856.370117,2265.640869 
	C1869.416382,2284.099365 1880.831543,2303.390625 1893.988525,2323.237549 
	C1884.859497,2330.983154 1876.271851,2339.178223 1866.786621,2346.152100 
	C1834.331543,2370.014648 1798.051147,2384.626953 1758.032349,2389.952881 
	C1726.738159,2394.117676 1695.781616,2393.175293 1665.383911,2384.153076 
	C1613.434570,2368.734131 1581.030151,2326.875488 1575.466309,2276.103760 
	C1572.286255,2247.083740 1577.401733,2219.266357 1584.403320,2191.578857 
	C1593.525391,2155.506104 1608.274658,2121.848877 1630.151001,2091.585938 
	C1668.722412,2038.227417 1719.694336,2003.796753 1785.446777,1994.926147 
	C1813.979736,1991.076782 1843.135132,1991.605347 1871.190918,2001.589478 
	C1910.764160,2015.672485 1933.822266,2043.634155 1942.267700,2084.302979 
	C1948.829590,2115.901855 1944.255371,2146.971436 1937.471069,2177.855957 
	C1933.985718,2193.723389 1929.738159,2209.423340 1925.574707,2226.250488 
	C1844.127808,2226.250488 1762.703125,2226.250488 1680.886841,2226.250488 
	C1679.282104,2244.455078 1680.247925,2261.148193 1689.161987,2276.376221 
	C1701.952271,2298.226318 1722.267578,2307.130127 1746.562500,2308.280029 
	C1784.468262,2310.074219 1817.801025,2298.252930 1847.231445,2273.293457 
M1846.331421,2126.931885 
	C1846.110107,2123.615234 1846.051758,2120.278564 1845.640869,2116.985596 
	C1843.150513,2097.026123 1832.167114,2084.300781 1812.570801,2079.498535 
	C1799.533569,2076.303711 1786.304321,2076.471191 1773.196533,2079.528076 
	C1756.487305,2083.425293 1742.672974,2092.311279 1730.909058,2104.560547 
	C1716.940063,2119.105713 1707.190552,2136.158936 1700.257446,2155.262695 
	C1747.659668,2155.262695 1794.227295,2155.262695 1841.760132,2155.262695 
	C1843.259277,2146.266357 1844.718384,2137.510742 1846.331421,2126.931885 
z"/>
<path fill="#FEFEFE" opacity="1.000000" stroke="none" 
	d="
M3128.909668,2010.830566 
	C3150.849121,2001.600098 3172.870850,1995.352417 3195.900146,1994.101807 
	C3221.808350,1992.694824 3247.648682,1992.839844 3272.712646,2001.689575 
	C3313.665039,2016.149048 3336.439941,2045.667603 3344.073975,2087.447754 
	C3349.471924,2116.990723 3345.684326,2146.317139 3339.303223,2175.312744 
	C3335.607422,2192.106201 3331.178955,2208.738281 3326.892822,2226.207031 
	C3245.483643,2226.207031 3164.334473,2226.207031 3083.376709,2226.207031 
	C3075.692627,2262.541016 3094.549072,2298.953857 3132.539795,2306.119385 
	C3169.535156,2313.096924 3203.734375,2304.940186 3234.720459,2283.692871 
	C3242.368652,2278.448486 3249.467285,2272.402832 3257.742920,2266.011963 
	C3270.689453,2283.719238 3281.624023,2303.281494 3294.738525,2322.289062 
	C3284.763916,2333.870117 3273.014404,2342.978271 3260.758789,2351.342041 
	C3229.209229,2372.872070 3194.352051,2385.730469 3156.404053,2390.356934 
	C3123.682861,2394.346191 3091.364990,2392.928711 3060.151123,2381.821777 
	C3014.308594,2365.509277 2987.017822,2332.772217 2977.960449,2285.100342 
	C2972.389404,2255.781006 2977.136475,2227.036865 2983.916504,2198.422852 
	C2994.491943,2153.791016 3013.009521,2113.066406 3042.115723,2077.400146 
	C3065.629150,2048.587402 3094.259521,2026.402832 3128.909668,2010.830566 
M3104.398682,2155.655273 
	C3150.241455,2155.655273 3196.084229,2155.655273 3243.192627,2155.655273 
	C3244.754150,2144.550049 3247.697510,2134.108398 3247.376709,2123.768066 
	C3246.657227,2100.594971 3237.284180,2084.288818 3212.836670,2079.065918 
	C3192.761719,2074.777344 3172.571045,2076.611328 3154.000488,2087.383789 
	C3128.873779,2101.959473 3114.132080,2124.780518 3102.968018,2150.535156 
	C3102.372070,2151.909668 3102.782959,2153.720459 3104.398682,2155.655273 
z"/>
<path fill="#FDFDFD" opacity="1.000000" stroke="none" 
	d="
M3648.028809,1993.662109 
	C3660.911865,1994.591675 3673.092529,1994.194336 3684.645020,1996.697144 
	C3721.032715,2004.580078 3740.325684,2028.063232 3743.698242,2065.901123 
	C3745.879883,2090.376953 3742.166748,2114.216553 3736.285400,2137.834473 
	C3716.239746,2218.333252 3696.157227,2298.822754 3676.066650,2379.310059 
	C3675.595459,2381.197266 3674.868164,2383.020508 3674.148193,2385.214600 
	C3640.035889,2385.214600 3606.194824,2385.214600 3571.258545,2385.214600 
	C3572.060303,2381.527588 3572.664062,2378.359863 3573.440674,2375.235107 
	C3593.133301,2296.013916 3612.891602,2216.808594 3632.469238,2137.559082 
	C3634.205078,2130.531738 3635.404297,2123.250732 3635.781250,2116.031738 
	C3636.911621,2094.406006 3626.218750,2081.537598 3604.675537,2078.426758 
	C3568.886719,2073.259277 3539.207520,2084.780273 3515.644775,2112.022461 
	C3513.613281,2114.371582 3512.552002,2117.825684 3511.768066,2120.949219 
	C3490.437500,2205.912842 3469.204346,2290.900391 3447.940430,2375.880615 
	C3447.217773,2378.768555 3446.343750,2381.618896 3445.380615,2385.056641 
	C3411.235352,2385.056641 3377.094971,2385.056641 3341.848389,2385.056641 
	C3373.979736,2256.567627 3405.987793,2128.572021 3437.981445,2000.633301 
	C3470.607666,2000.633301 3502.542969,2000.633301 3535.471680,2000.633301 
	C3533.277588,2013.916626 3531.155762,2026.763672 3528.714600,2041.544189 
	C3532.360107,2038.910156 3534.718018,2037.414429 3536.842529,2035.639526 
	C3558.848145,2017.253052 3583.259033,2003.341553 3611.531982,1997.535645 
	C3623.143311,1995.151123 3635.190186,1994.889526 3648.028809,1993.662109 
z"/>
<path fill="#FDFDFD" opacity="1.000000" stroke="none" 
	d="
M2678.063477,2325.981934 
	C2675.934814,2302.290283 2674.007080,2279.509033 2672.072021,2256.728271 
	C2669.267822,2223.712402 2666.472656,2190.695557 2663.647461,2157.681396 
	C2660.992188,2126.652100 2658.375732,2095.618652 2655.603027,2064.599609 
	C2653.719727,2043.532593 2651.596191,2022.487183 2649.524414,2000.847412 
	C2685.523438,2000.847412 2720.751953,2000.847412 2757.321777,2000.847412 
	C2757.644287,2004.678711 2758.219971,2008.828003 2758.308350,2012.987427 
	C2759.038818,2047.240479 2759.610840,2081.496826 2760.368164,2115.749268 
	C2760.919189,2140.673828 2761.576904,2165.596924 2762.374756,2190.514893 
	C2763.040283,2211.298096 2763.978271,2232.072510 2766.387451,2253.529053 
	C2810.649414,2169.375488 2854.911133,2085.221924 2899.301758,2000.823853 
	C2935.081055,2000.823853 2970.513916,2000.823853 3007.823486,2000.823853 
	C2932.022949,2129.887695 2856.888428,2257.818115 2781.890137,2385.516113 
	C2749.202637,2385.516113 2717.233887,2385.516113 2683.795166,2385.516113 
	C2680.779785,2366.126465 2680.141357,2346.435059 2678.063477,2325.981934 
z"/>
<path fill="#FEFEFE" opacity="1.000000" stroke="none" 
	d="
M2184.427734,1914.368164 
	C2177.319824,1943.187256 2170.365479,1971.148071 2163.147461,2000.169800 
	C2185.293701,2000.169800 2206.465576,2000.169800 2228.793945,2000.169800 
	C2222.355957,2025.988281 2216.192383,2050.705322 2209.879639,2076.020996 
	C2188.136719,2076.020996 2166.580322,2076.020996 2144.226562,2076.020996 
	C2141.145508,2088.269531 2138.167969,2100.075195 2135.206543,2111.885254 
	C2122.216797,2163.685547 2109.209961,2215.481934 2096.282715,2267.298096 
	C2095.163086,2271.785645 2094.209717,2276.375244 2093.815186,2280.972168 
	C2092.432373,2297.071289 2099.533447,2305.240479 2115.870605,2306.242432 
	C2122.508301,2306.649170 2129.199707,2306.533203 2135.851074,2306.265625 
	C2142.098145,2306.014404 2148.324463,2305.249512 2156.021484,2304.584229 
	C2150.581787,2330.882324 2143.109863,2356.405762 2137.051514,2382.639648 
	C2113.243652,2389.659180 2089.061523,2393.403564 2064.425293,2391.916992 
	C2051.965576,2391.164795 2039.285522,2389.220703 2027.347168,2385.662109 
	C2000.495850,2377.657715 1985.596680,2355.887207 1984.259033,2326.412598 
	C1983.186768,2302.786377 1989.256104,2280.385986 1994.888428,2257.858154 
	C2009.530762,2199.290527 2024.149658,2140.717041 2038.766357,2082.143066 
	C2039.157471,2080.575195 2039.413086,2078.973633 2039.929932,2076.401855 
	C2021.203979,2076.401855 2003.065430,2076.401855 1984.300415,2076.401855 
	C1990.721558,2050.696533 1996.892578,2025.993164 2003.220215,2000.662231 
	C2021.811401,2000.662231 2040.020996,2000.662231 2059.119873,2000.662231 
	C2067.125244,1968.841797 2075.005371,1937.518555 2082.934570,1906.000488 
	C2117.309326,1906.000488 2151.207275,1906.000488 2186.035645,1906.000488 
	C2185.513916,1908.694336 2185.047607,1911.102173 2184.427734,1914.368164 
z"/>
<path fill="#FDFDFD" opacity="1.000000" stroke="none" 
	d="
M3844.402344,2092.415039 
	C3845.759521,2086.822510 3846.973145,2082.044189 3848.404053,2076.409180 
	C3829.642090,2076.409180 3811.758789,2076.409180 3792.584717,2076.409180 
	C3799.039795,2050.521240 3805.255615,2025.592651 3811.591553,2000.183350 
	C3830.668213,2000.183350 3848.909912,2000.183350 3867.524658,2000.183350 
	C3875.405273,1968.739868 3883.139648,1937.879639 3891.042725,1906.345947 
	C3925.060059,1906.345947 3959.223633,1906.345947 3994.696777,1906.345947 
	C3987.001465,1937.355957 3979.374512,1968.091309 3971.468262,1999.951050 
	C3993.209229,1999.951050 4014.287598,1999.951050 4037.047363,1999.951050 
	C4030.515625,2026.201416 4024.320801,2051.097656 4018.049316,2076.302002 
	C3996.109375,2076.302002 3974.817871,2076.302002 3952.492432,2076.302002 
	C3950.028809,2086.007568 3947.578369,2095.523926 3945.198730,2105.058105 
	C3931.933838,2158.202881 3918.651855,2211.343262 3905.481445,2264.511719 
	C3904.054443,2270.272217 3902.706055,2276.165771 3902.358887,2282.058838 
	C3901.416504,2298.065674 3908.191895,2305.400879 3924.343750,2306.255371 
	C3930.991699,2306.606934 3937.680664,2306.515869 3944.337891,2306.270508 
	C3950.561768,2306.040771 3956.768799,2305.340332 3962.987549,2304.846680 
	C3963.799072,2311.621826 3954.530762,2351.806885 3944.882568,2383.037354 
	C3913.757568,2391.332031 3882.020508,2395.625244 3849.773193,2389.587646 
	C3827.730713,2385.460449 3808.527588,2375.971680 3798.808105,2353.993652 
	C3792.500000,2339.730469 3790.943115,2324.495605 3792.846680,2309.086670 
	C3797.256592,2273.389160 3808.629883,2239.247314 3816.802979,2204.393311 
	C3825.515869,2167.235596 3835.071289,2130.275391 3844.402344,2092.415039 
z"/>
<path fill="#FEFEFE" opacity="1.000000" stroke="none" 
	d="
M354.007965,2838.000000 
	C353.922089,2839.365967 353.547607,2840.459473 353.173157,2841.553223 
	C352.862762,2841.505127 352.552399,2841.457031 352.242035,2841.409180 
	C352.242035,2840.289551 352.242035,2839.169678 352.691528,2837.617676 
	C353.140991,2837.185059 353.719391,2837.727783 354.007965,2838.000000 
z"/>
<path fill="#040404" opacity="1.000000" stroke="none" 
	d="
M1846.254395,2127.843262 
	C1844.718384,2137.510742 1843.259277,2146.266357 1841.760132,2155.262695 
	C1794.227295,2155.262695 1747.659668,2155.262695 1700.257446,2155.262695 
	C1707.190552,2136.158936 1716.940063,2119.105713 1730.909058,2104.560547 
	C1742.672974,2092.311279 1756.487305,2083.425293 1773.196533,2079.528076 
	C1786.304321,2076.471191 1799.533569,2076.303711 1812.570801,2079.498535 
	C1832.167114,2084.300781 1843.150513,2097.026123 1845.640869,2116.985596 
	C1846.051758,2120.278564 1846.110107,2123.615234 1846.254395,2127.843262 
z"/>
<path fill="#040404" opacity="1.000000" stroke="none" 
	d="
M3103.562012,2155.491699 
	C3102.782959,2153.720459 3102.372070,2151.909668 3102.968018,2150.535156 
	C3114.132080,2124.780518 3128.873779,2101.959473 3154.000488,2087.383789 
	C3172.571045,2076.611328 3192.761719,2074.777344 3212.836670,2079.065918 
	C3237.284180,2084.288818 3246.657227,2100.594971 3247.376709,2123.768066 
	C3247.697510,2134.108398 3244.754150,2144.550049 3243.192627,2155.655273 
	C3196.084229,2155.655273 3150.241455,2155.655273 3103.562012,2155.491699 
z"/>
</svg>